# Blender v2.79 (sub 0) OBJ File: 'prop_help_screen.blend'
# www.blender.org
mtllib prop_help_screen.mtl
o g_monitor_01
v 90.000000 -5.000000 340.000000
v -90.000000 -5.000000 340.000000
v -90.000000 -5.000000 60.000004
v 90.000000 -5.000000 60.000004
v 57.783554 -7.600734 60.000004
v 19.910854 -8.968023 60.000004
v -19.910866 -8.968021 60.000004
v -57.783562 -7.600734 60.000004
v -57.783554 -7.600734 340.000000
v -19.910854 -8.968023 340.000000
v 19.910866 -8.968021 340.000000
v 57.783562 -7.600734 340.000000
vt 0.001465 0.005859
vt 0.034668 0.994141
vt 0.001465 0.994141
vt 0.034668 0.005859
vt 0.073242 0.994141
vt 0.073242 0.005859
vt 0.114258 0.994141
vt 0.114258 0.005859
vt 0.152832 0.994141
vt 0.152832 0.005859
vt 0.186035 0.994141
vt 0.186035 0.005859
vn -0.0804 -0.9967 0.0000
vn -0.0583 -0.9983 0.0000
vn -0.0180 -0.9998 0.0000
vn 0.0180 -0.9998 0.0000
vn 0.0583 -0.9983 0.0000
vn 0.0804 -0.9967 0.0000
usemtl mat_pdcw_info_01
s 1
f 3/1/1 9/2/2 2/3/1
f 8/4/2 10/5/3 9/2/2
f 7/6/3 11/7/4 10/5/3
f 6/8/4 12/9/5 11/7/4
f 5/10/5 1/11/6 12/9/5
f 3/1/1 8/4/2 9/2/2
f 8/4/2 7/6/3 10/5/3
f 7/6/3 6/8/4 11/7/4
f 6/8/4 5/10/5 12/9/5
f 5/10/5 4/12/6 1/11/6
o co_culling
v 0.000000 0.000000 0.000000
v 0.000000 0.000000 0.000000
v 0.000000 0.000000 0.000000
v 0.000000 0.000000 0.000000
v 0.000000 0.000000 0.000000
v 0.000000 0.000000 0.000000
v 0.000000 0.000000 0.000000
v 0.000000 0.000000 0.000000
vn 0.0000 0.0000 1.0000
usemtl None
s off
f 13//7 16//7 15//7
f 15//7 20//7 19//7
f 19//7 18//7 17//7
f 17//7 14//7 13//7
f 15//7 17//7 13//7
f 20//7 14//7 18//7
f 13//7 14//7 16//7
f 15//7 16//7 20//7
f 19//7 20//7 18//7
f 17//7 18//7 14//7
f 15//7 19//7 17//7
f 20//7 16//7 14//7
o g_g
v -90.000000 -9.999996 340.000000
v -100.000000 10.000000 50.000000
v -100.000000 10.000000 50.000000
v 90.000000 -9.999996 60.000004
v -100.000000 10.000000 350.000000
v 100.000000 10.000000 50.000000
v 90.000000 0.000001 340.000000
v -90.000000 0.000001 340.000000
v -90.000000 0.000001 60.000004
v 90.000000 0.000001 60.000004
v 100.000000 10.000000 350.000000
v 100.000000 10.000000 50.000000
v 90.000000 -9.999996 340.000000
v 90.000000 -9.999996 60.000004
v 100.000000 -9.999996 350.000000
v 100.000000 -9.999996 50.000000
v 90.000000 0.000001 340.000000
v 90.000000 0.000001 60.000004
v 100.000000 10.000000 350.000000
v 90.000000 -9.999996 340.000000
v -100.000000 10.000000 350.000000
v -90.000000 -9.999996 340.000000
v 100.000000 -9.999996 350.000000
v -100.000000 -9.999996 350.000000
v 90.000000 0.000001 340.000000
v -90.000000 0.000001 340.000000
v -90.000000 -9.999996 60.000004
v -100.000000 -9.999996 350.000000
v -100.000000 -9.999996 50.000000
v -90.000000 0.000001 340.000000
v -90.000000 0.000001 60.000004
v -90.000000 -9.999996 60.000004
v -100.000000 -9.999996 50.000000
v 100.000000 -9.999996 50.000000
v -90.000000 0.000001 60.000004
v 90.000000 0.000001 60.000004
v 100.000000 10.000000 50.000000
v 100.000000 10.000000 0.000000
v 90.000000 -9.999996 50.000000
v 90.000000 -9.999996 0.000002
v 100.000000 -9.999996 50.000000
v 100.000000 -9.999996 0.000000
v 90.000000 10.000002 50.000000
v 90.000000 10.000002 0.000002
v -90.000000 10.000000 50.000000
v -90.000000 10.000000 0.000000
v -100.000000 -9.999996 50.000000
v -100.000000 -9.999996 0.000002
v -90.000000 -9.999996 50.000000
v -90.000000 -9.999996 0.000000
v -100.000000 10.000002 50.000000
v -100.000000 10.000002 0.000002
v -100.000000 -9.999996 350.000000
v -90.000000 -9.999996 340.000000
v -90.000000 -9.999996 60.000004
v 100.000000 -9.999996 50.000000
v 90.000000 -9.999996 60.000004
v -90.000000 -9.999996 60.000004
v 100.000000 -9.999996 350.000000
v -100.000000 -9.999996 50.000000
v -100.000000 -9.999996 50.000000
v -100.000000 -9.999996 350.000000
v 100.000000 -9.999996 350.000000
v 100.000000 -9.999996 50.000000
v 90.000000 -9.999996 340.000000
v 90.000000 -9.999996 60.000004
v 90.000000 -9.999996 340.000000
v -90.000000 -9.999996 340.000000
v 100.000000 -9.999996 50.000000
v 100.000000 -9.999996 0.000000
v 90.000000 -9.999996 50.000000
v 90.000000 -9.999996 0.000002
v -90.000000 -9.999996 50.000000
v -90.000000 -9.999996 0.000000
v -100.000000 -9.999996 50.000000
v -100.000000 -9.999996 0.000002
vt 0.099609 0.199219
vt 1.992190 -0.000000
vt 1.892581 0.199219
vt 2.888670 0.199219
vt 0.099609 0.398442
vt 0.099609 0.199219
vt 1.892580 0.199221
vt 0.099609 0.398438
vt 0.099609 0.199219
vt 0.099609 0.199219
vt 2.988280 -0.000003
vt 2.888670 0.199219
vt 1.892581 0.199219
vt 0.099609 0.398438
vt 0.099609 0.199219
vt 0.099609 0.199219
vt 1.992189 0.000003
vt 1.892580 0.199221
vt 0.000000 0.000000
vt 0.000000 0.000000
vt 0.000000 0.000000
vt 1.992190 -0.398438
vt 0.000000 0.000000
vt 0.000000 -0.398440
vt 0.000000 0.000000
vt 2.988280 -0.398441
vt 2.988280 -0.000003
vt 1.992189 -0.398435
vt 0.000000 0.000000
vt 0.000000 -0.398440
vt 2.988279 -0.398438
vt 0.000000 0.000000
vt 0.000000 -0.398438
vt 0.099609 0.199219
vt 2.988279 -0.000000
vt 2.888668 0.199222
vt 2.888668 0.199222
vt 0.099609 0.398442
vt 0.099609 0.199219
vt 0.498047 -0.398437
vt 0.000000 0.000000
vt -0.000000 -0.398437
vt 0.000000 0.199219
vt 0.498047 0.000000
vt 0.498047 0.199219
vt 0.498047 0.199219
vt -0.000000 0.597656
vt 0.000000 0.199219
vt 0.498047 -0.398437
vt 0.000000 0.000000
vt -0.000000 -0.398437
vt 0.000000 0.199219
vt 0.498047 0.000000
vt 0.498047 0.199219
vt 0.498047 0.199219
vt -0.000000 0.597656
vt 0.000000 0.199219
vt 0.000000 0.000000
vt 2.888670 0.398438
vt 1.892580 0.398440
vt 0.000000 0.000000
vt 1.892581 0.398438
vt 0.000000 0.000000
vt 0.000000 0.000000
vt 1.992190 -0.000000
vt -0.000000 -0.398438
vt 1.992189 0.000003
vt 2.988279 -0.000000
vt 0.000000 0.000000
vt 2.888668 0.398440
vt 0.498047 0.000000
vt 0.000000 0.000000
vt 0.498046 0.597656
vt 0.498047 0.000000
vt 0.000000 0.000000
vt 0.498046 0.597656
vn 0.0000 -1.0000 0.0000
vn 1.0000 0.0000 0.0000
vn 0.0000 0.0000 -1.0000
vn 0.0000 0.0000 1.0000
vn -1.0000 0.0000 0.0000
usemtl mat_frame
s off
f 78/13/8 76/14/8 77/15/8
f 75/16/9 50/17/9 21/18/9
f 88/19/10 45/20/10 87/21/10
f 74/22/8 80/23/8 47/24/8
f 24/25/11 55/26/11 52/27/11
f 40/28/8 82/29/8 42/30/8
f 27/31/8 29/32/8 30/33/8
f 26/34/10 81/35/10 23/36/10
f 48/37/12 22/38/12 49/39/12
f 41/40/11 79/41/11 39/42/11
f 31/43/9 84/44/9 32/45/9
f 86/46/8 35/47/8 85/48/8
f 33/49/12 38/50/12 34/51/12
f 57/52/9 90/53/9 58/54/9
f 92/55/8 61/56/8 91/57/8
f 59/58/12 64/59/12 60/60/12
f 65/61/9 94/62/9 66/63/9
f 96/64/8 69/65/8 95/66/8
f 67/67/12 72/68/12 68/69/12
f 78/13/8 53/70/8 76/14/8
f 75/16/9 51/71/9 50/17/9
f 88/19/10 46/72/10 45/20/10
f 74/22/8 73/73/8 80/23/8
f 24/25/11 56/74/11 55/26/11
f 40/28/8 43/75/8 82/29/8
f 27/31/8 28/76/8 29/32/8
f 26/34/10 54/77/10 81/35/10
f 48/37/12 25/78/12 22/38/12
f 41/40/11 44/79/11 79/41/11
f 31/43/9 83/80/9 84/44/9
f 86/46/8 36/81/8 35/47/8
f 33/49/12 37/82/12 38/50/12
f 57/52/9 89/83/9 90/53/9
f 92/55/8 62/84/8 61/56/8
f 59/58/12 63/85/12 64/59/12
f 65/61/9 93/86/9 94/62/9
f 96/64/8 70/87/8 69/65/8
f 67/67/12 71/88/12 72/68/12
